<svg xmlns="http://www.w3.org/2000/svg" version="1.1" xmlns:xlink="http://www.w3.org/1999/xlink" xmlns:svgjs="http://svgjs.dev/svgjs" width="2000" height="732" viewBox="0 0 2000 732"><g transform="matrix(1,0,0,1,-1.2121212121210192,-0.36618841666143)"><svg viewBox="0 0 396 145" data-background-color="#ffffff" preserveAspectRatio="xMidYMid meet" height="732" width="2000" xmlns="http://www.w3.org/2000/svg" xmlns:xlink="http://www.w3.org/1999/xlink"><g id="tight-bounds" transform="matrix(1,0,0,1,0.23999999999995225,0.07253732297255056)"><svg viewBox="0 0 395.52 144.8549253540549" height="144.8549253540549" width="395.52"><g><svg viewBox="0 0 632.010030044203 231.46684295374953" height="144.8549253540549" width="395.52"><g><rect width="10.057056404826971" height="200.98423411324126" x="200.10560085187092" y="15.241304420254139" fill="#bf9d50" opacity="1" stroke-width="0" stroke="transparent" fill-opacity="1" class="rect-qz-0" data-fill-palette-color="primary" rx="1%" id="qz-0" data-palette-color="#bf9d50"></rect></g><g transform="matrix(1,0,0,1,236.49003004420305,31.989990596357572)"><svg viewBox="0 0 395.52 167.4868617610344" height="167.4868617610344" width="395.52"><g id="textblocktransform"><svg viewBox="0 0 395.52 167.4868617610344" height="167.4868617610344" width="395.52" id="textblock"><g><svg viewBox="0 0 395.52 111.52075089168386" height="111.52075089168386" width="395.52"><g transform="matrix(1,0,0,1,0,0)"><svg width="395.52" viewBox="2 -37.15 133.16 37.55" height="111.52075089168386" data-palette-color="#bf9d50"><path d="M7.4 0L2 0 2-36.75 7.4-36.75Q10.48-36.75 12.54-35.4 14.6-34.05 15.63-31.58 16.65-29.1 16.65-25.75L16.65-25.75Q16.65-22.4 15.58-19.98 14.5-17.55 12.44-16.19 10.38-14.83 7.4-14.7L7.4-14.7 7.4 0ZM7.4-31.25L7.4-20.2Q8.83-20.2 9.65-20.76 10.48-21.33 10.84-22.55 11.2-23.78 11.2-25.7L11.2-25.7Q11.2-27.65 10.84-28.88 10.48-30.1 9.64-30.68 8.8-31.25 7.4-31.25L7.4-31.25ZM26.1 0.4L26.1 0.4Q23.87 0.4 22.4-0.34 20.92-1.07 20.07-2.48 19.22-3.88 18.86-5.85 18.5-7.83 18.5-10.3L18.5-10.3 23.8-10.8Q23.8-9.6 23.89-8.49 23.97-7.38 24.21-6.49 24.45-5.6 24.91-5.08 25.37-4.55 26.1-4.55L26.1-4.55Q27.3-4.55 27.8-5.66 28.3-6.78 28.3-8.35L28.3-8.35Q28.3-9.93 27.47-11.63 26.65-13.33 25.5-14.85L25.5-14.85Q23.55-17.45 22.09-19.68 20.62-21.9 19.81-24.05 19-26.2 19-28.55L19-28.55Q19-30.4 19.47-31.96 19.95-33.52 20.86-34.69 21.77-35.85 23.07-36.5 24.37-37.15 26.05-37.15L26.05-37.15Q28.12-37.15 29.56-36.45 31-35.75 31.89-34.45 32.77-33.15 33.19-31.36 33.6-29.58 33.6-27.4L33.6-27.4 28.3-26.9Q28.3-27.83 28.21-28.76 28.12-29.7 27.9-30.48 27.67-31.25 27.25-31.73 26.82-32.2 26.15-32.2L26.15-32.2Q25.1-32.2 24.7-31.31 24.3-30.43 24.3-28.8L24.3-28.8Q24.3-26.7 25.42-24.75 26.55-22.8 28.45-20.2L28.45-20.2Q30.72-17.13 32.16-14.55 33.6-11.98 33.6-8.85L33.6-8.85Q33.6-6.88 33.17-5.19 32.75-3.5 31.84-2.25 30.92-1 29.51-0.3 28.1 0.4 26.1 0.4ZM46.15 0L40.75 0 40.75-15.65 35.25-36.75 40.55-36.75 43.2-25 43.37-23.4 43.52-23.4 43.7-25 46.35-36.75 51.65-36.75 46.15-15.65 46.15 0ZM61.34 0.4L61.34 0.4Q59.04 0.4 57.43-0.64 55.82-1.68 54.98-3.48 54.14-5.28 54.14-7.55L54.14-7.55 54.14-29.2Q54.14-31.45 55.01-33.25 55.87-35.05 57.49-36.1 59.12-37.15 61.34-37.15L61.34-37.15Q63.02-37.15 64.34-36.52 65.67-35.9 66.61-34.81 67.54-33.73 68.04-32.29 68.54-30.85 68.54-29.2L68.54-29.2 68.54-24.15 63.49-24.15 63.49-29.2Q63.49-30.35 63.02-31.13 62.54-31.9 61.44-31.9L61.44-31.9Q60.44-31.9 59.99-31.1 59.54-30.3 59.54-29.2L59.54-29.2 59.54-7.55Q59.54-6.45 60.03-5.65 60.52-4.85 61.44-4.85L61.44-4.85Q62.57-4.85 63.03-5.63 63.49-6.4 63.49-7.55L63.49-7.55 63.49-12.6 68.54-12.6 68.54-7.55Q68.54-5.3 67.67-3.5 66.79-1.7 65.18-0.65 63.57 0.4 61.34 0.4ZM77.69 0L72.29 0 72.29-36.75 77.69-36.75 77.69-21.55 81.89-21.55 81.89-36.75 87.29-36.75 87.29 0 81.89 0 81.89-16 77.69-16 77.69 0ZM96.69 0L91.29 0 91.29-36.75 96.69-36.75 96.69 0ZM107.64 0.4L107.64 0.4Q105.34 0.4 103.72-0.64 102.11-1.68 101.27-3.48 100.44-5.28 100.44-7.55L100.44-7.55 100.44-29.2Q100.44-31.45 101.3-33.25 102.16-35.05 103.79-36.1 105.41-37.15 107.64-37.15L107.64-37.15Q109.31-37.15 110.64-36.52 111.96-35.9 112.9-34.81 113.84-33.73 114.34-32.29 114.84-30.85 114.84-29.2L114.84-29.2 114.84-24.15 109.79-24.15 109.79-29.2Q109.79-30.35 109.31-31.13 108.84-31.9 107.74-31.9L107.74-31.9Q106.74-31.9 106.29-31.1 105.84-30.3 105.84-29.2L105.84-29.2 105.84-7.55Q105.84-6.45 106.32-5.65 106.81-4.85 107.74-4.85L107.74-4.85Q108.86-4.85 109.32-5.63 109.79-6.4 109.79-7.55L109.79-7.55 109.79-12.6 114.84-12.6 114.84-7.55Q114.84-5.3 113.96-3.5 113.09-1.7 111.47-0.65 109.86 0.4 107.64 0.4ZM122.71 0L117.46 0 123.01-36.75 129.61-36.75 135.16 0 129.91 0 128.91-7.5 123.71-7.5 122.71 0ZM126.01-25.55L124.46-13.2 128.16-13.2 126.61-25.55 126.46-27.5 126.16-27.5 126.01-25.55Z" opacity="1" transform="matrix(1,0,0,1,0,0)" fill="#bf9d50" class="wordmark-text-0" data-fill-palette-color="primary" id="text-0"></path></svg></g></svg></g><g transform="matrix(1,0,0,1,0,137.84812367918903)"><svg viewBox="0 0 232.209792 29.638738081845364" height="29.638738081845364" width="232.209792"><g transform="matrix(1,0,0,1,0,0)"><svg width="232.209792" viewBox="3.91 -35.86 285.73999999999995 36.47" height="29.638738081845364" data-palette-color="#ffffff"><path d="M17.43 0L9.94 0Q7.42 0 6.12-0.63 4.81-1.27 4.36-2.71 3.91-4.15 3.91-6.54L3.91-6.54 3.91-28.47Q3.91-30.91 4.36-32.34 4.81-33.76 6.12-34.39 7.42-35.01 9.94-35.01L9.94-35.01 17.43-35.01Q22.68-35.01 26.62-33.45 30.57-31.88 32.76-28.16 34.96-24.44 34.96-17.94L34.96-17.94Q34.96-11.45 32.76-7.51 30.57-3.56 26.62-1.78 22.68 0 17.43 0L17.43 0ZM15.65-28.59L14.58-28.59Q12.96-28.59 12.38-27.91 11.79-27.22 11.79-25.56L11.79-25.56 11.79-9.45Q11.79-7.81 12.38-7.1 12.96-6.4 14.58-6.4L14.58-6.4 15.7-6.4Q20.92-6.4 23.79-8.96 26.66-11.52 26.66-17.85L26.66-17.85Q26.66-22.07 25.35-24.4 24.05-26.73 21.58-27.66 19.12-28.59 15.65-28.59L15.65-28.59ZM48.95-31.1L48.95-1.29Q48.95-0.56 48.64-0.28 48.34 0 47.6 0L47.6 0 42.4 0Q41.67 0 41.37-0.28 41.06-0.56 41.06-1.29L41.06-1.29 41.06-31.1Q41.06-31.81 41.31-32.18L41.31-32.18Q42.4-33.79 44.38-35.57L44.38-35.57Q44.75-35.86 45.02-35.86L45.02-35.86Q45.31-35.86 45.63-35.57L45.63-35.57Q46.7-34.64 47.43-33.8 48.17-32.96 48.7-32.18L48.7-32.18Q48.95-31.79 48.95-31.1L48.95-31.1ZM64.84-1.93L64.84-1.93Q62.89-5 61.02-8.83 59.15-12.65 57.64-16.69 56.12-20.73 55.22-24.48 54.32-28.22 54.32-31.18L54.32-31.18Q54.32-31.81 54.58-32.18L54.58-32.18Q55.15-32.96 55.96-33.8 56.78-34.64 57.91-35.57L57.91-35.57Q58.27-35.86 58.59-35.86L58.59-35.86Q58.91-35.86 59.22-35.57L59.22-35.57Q60.37-34.64 61.18-33.8 61.98-32.96 62.54-32.18L62.54-32.18Q62.81-31.81 62.81-31.1L62.81-31.1 62.81-31.2Q62.81-29.13 63.39-26.21 63.96-23.29 64.97-20.08 65.99-16.87 67.29-13.85 68.6-10.84 70.09-8.59L70.09-8.59 70.23-8.59Q71.87-10.84 73.2-13.83 74.53-16.82 75.5-20.02 76.46-23.22 76.98-26.14 77.51-29.05 77.51-31.18L77.51-31.18 77.51-31.1Q77.51-31.81 77.75-32.18L77.75-32.18Q78.93-33.79 80.98-35.57L80.98-35.57Q81.37-35.86 81.66-35.86L81.66-35.86Q81.93-35.86 82.29-35.57L82.29-35.57Q83.39-34.64 84.17-33.8 84.96-32.96 85.52-32.18L85.52-32.18Q85.76-31.79 85.76-31.13L85.76-31.13Q85.76-28.91 85.14-25.99 84.52-23.07 83.44-19.82 82.37-16.58 81-13.33 79.63-10.08 78.12-7.14 76.61-4.2 75.09-1.93L75.09-1.93Q73.82 0 71.63 0L71.63 0 68.26 0Q66.06 0 64.84-1.93ZM54.32-31.1L54.32-31.2 54.32-31.18 54.32-31.1ZM85.76-31.13L85.76-31.18 85.76-31.1 85.76-31.13ZM99.02-31.1L99.02-1.29Q99.02-0.56 98.71-0.28 98.41 0 97.67 0L97.67 0 92.47 0Q91.74 0 91.44-0.28 91.13-0.56 91.13-1.29L91.13-1.29 91.13-31.1Q91.13-31.81 91.37-32.18L91.37-32.18Q92.47-33.79 94.45-35.57L94.45-35.57Q94.82-35.86 95.09-35.86L95.09-35.86Q95.38-35.86 95.7-35.57L95.7-35.57Q96.77-34.64 97.5-33.8 98.23-32.96 98.77-32.18L98.77-32.18Q99.02-31.79 99.02-31.1L99.02-31.1ZM114.27-25.29L114.27-1.29Q114.27-0.56 113.99-0.28 113.71 0 113 0L113 0 108.1 0Q107.41 0 107.12-0.28 106.83-0.56 106.83-1.29L106.83-1.29 106.83-32.23Q106.83-33.67 107.39-34.34 107.95-35.01 109.37-35.01L109.37-35.01 111.64-35.01Q112.88-35.01 113.99-34.68 115.1-34.35 116.36-33.2 117.62-32.06 119.29-29.65 120.96-27.25 123.33-23.1L123.33-23.1Q125.6-19.14 126.98-16.77 128.36-14.4 129.12-13.16 129.87-11.91 130.25-11.38 130.63-10.84 130.87-10.5L130.87-10.5 130.87-31.1Q130.87-31.81 131.09-32.18L131.09-32.18Q132.14-33.79 134-35.57L134-35.57Q134.37-35.86 134.61-35.86L134.61-35.86Q134.88-35.86 135.2-35.57L135.2-35.57Q136.2-34.64 136.89-33.8 137.59-32.96 138.1-32.18L138.1-32.18Q138.32-31.79 138.32-31.1L138.32-31.1 138.32-2.03Q138.32-0.93 137.91-0.46 137.49 0 136.39 0L136.39 0 134.05 0Q133 0 131.9-0.35 130.8-0.71 129.41-1.97 128.02-3.22 126.11-5.88 124.21-8.54 121.52-13.16L121.52-13.16Q119.25-17.09 117.9-19.41 116.54-21.73 115.83-22.91 115.13-24.1 114.81-24.57 114.49-25.05 114.27-25.29L114.27-25.29ZM164.98-33.08L164.98-33.08Q166.32-31.2 167.72-28.23 169.13-25.27 170.45-21.73 171.76-18.19 172.83-14.49 173.89-10.79 174.57-7.37 175.26-3.96 175.35-1.29L175.35-1.29Q175.38 0 174.18 0L174.18 0 168.27 0Q167.13 0 167.08-1.15L167.08-1.15Q166.98-3.88 166.2-7.79L166.2-7.79 152.87-7.79Q152.18-3.98 152.09-1.15L152.09-1.15Q152.04 0 150.84 0L150.84 0 145.06 0Q144.62 0 144.32-0.26 144.03-0.51 144.05-1.15L144.05-1.15Q144.18-3.86 144.85-7.31 145.52-10.77 146.59-14.48 147.67-18.19 148.99-21.74 150.3-25.29 151.72-28.25 153.14-31.2 154.48-33.08L154.48-33.08Q155.19-34.08 155.98-34.55 156.77-35.01 157.95-35.01L157.95-35.01 161.46-35.01Q162.66-35.01 163.46-34.55 164.27-34.08 164.98-33.08ZM159.61-27.29L159.46-27.29Q157.85-24.73 156.51-21.17 155.16-17.6 154.19-13.84L154.19-13.84 164.78-13.84Q163.76-17.6 162.41-21.17 161.07-24.73 159.61-27.29L159.61-27.29ZM188.53-25.29L188.53-1.29Q188.53-0.56 188.25-0.28 187.97 0 187.27 0L187.27 0 182.36 0Q181.67 0 181.38-0.28 181.09-0.56 181.09-1.29L181.09-1.29 181.09-32.23Q181.09-33.67 181.65-34.34 182.21-35.01 183.63-35.01L183.63-35.01 185.9-35.01Q187.14-35.01 188.25-34.68 189.36-34.35 190.62-33.2 191.88-32.06 193.55-29.65 195.22-27.25 197.59-23.1L197.59-23.1Q199.86-19.14 201.24-16.77 202.62-14.4 203.38-13.16 204.14-11.91 204.51-11.38 204.89-10.84 205.14-10.5L205.14-10.5 205.14-31.1Q205.14-31.81 205.36-32.18L205.36-32.18Q206.41-33.79 208.26-35.57L208.26-35.57Q208.63-35.86 208.87-35.86L208.87-35.86Q209.14-35.86 209.46-35.57L209.46-35.57Q210.46-34.64 211.15-33.8 211.85-32.96 212.36-32.18L212.36-32.18Q212.58-31.79 212.58-31.1L212.58-31.1 212.58-2.03Q212.58-0.93 212.17-0.46 211.75 0 210.65 0L210.65 0 208.31 0Q207.26 0 206.16-0.35 205.06-0.71 203.67-1.97 202.28-3.22 200.38-5.88 198.47-8.54 195.79-13.16L195.79-13.16Q193.52-17.09 192.16-19.41 190.81-21.73 190.1-22.91 189.39-24.1 189.07-24.57 188.75-25.05 188.53-25.29L188.53-25.29ZM233.92 0L226.42 0Q223.91 0 222.6-0.63 221.3-1.27 220.84-2.71 220.39-4.15 220.39-6.54L220.39-6.54 220.39-28.47Q220.39-30.91 220.84-32.34 221.3-33.76 222.6-34.39 223.91-35.01 226.42-35.01L226.42-35.01 233.92-35.01Q239.17-35.01 243.11-33.45 247.05-31.88 249.25-28.16 251.45-24.44 251.45-17.94L251.45-17.94Q251.45-11.45 249.25-7.51 247.05-3.56 243.11-1.78 239.17 0 233.92 0L233.92 0ZM232.14-28.59L231.06-28.59Q229.45-28.59 228.86-27.91 228.28-27.22 228.28-25.56L228.28-25.56 228.28-9.45Q228.28-7.81 228.86-7.1 229.45-6.4 231.06-6.4L231.06-6.4 232.18-6.4Q237.41-6.4 240.28-8.96 243.15-11.52 243.15-17.85L243.15-17.85Q243.15-22.07 241.84-24.4 240.53-26.73 238.07-27.66 235.6-28.59 232.14-28.59L232.14-28.59ZM272.56 0.61L272.56 0.61Q267.48 0.61 263.73-1.34 259.97-3.3 257.9-7.23 255.84-11.16 255.84-17.04L255.84-17.04Q255.84-26.39 260.4-30.99 264.97-35.6 273.12-35.6L273.12-35.6Q280.77-35.6 285.21-31.09 289.65-26.59 289.65-17.75L289.65-17.75Q289.65-11.5 287.58-7.43 285.5-3.37 281.67-1.38 277.84 0.61 272.56 0.61ZM272.71-5.98L272.71-5.98Q277.1-5.98 279.23-9.13 281.35-12.28 281.35-17.31L281.35-17.31Q281.35-23.14 279.35-26.07 277.35-29 272.9-29L272.9-29Q264.14-29 264.14-17.46L264.14-17.46Q264.14-12.3 266.25-9.14 268.36-5.98 272.71-5.98Z" opacity="1" transform="matrix(1,0,0,1,0,0)" fill="#ffffff" class="slogan-text-1" data-fill-palette-color="secondary" id="text-1"></path></svg></g></svg></g></svg></g></svg></g><g><svg viewBox="0 0 173.77822806436575 231.46684295374953" height="231.46684295374953" width="173.77822806436575"><g><svg xmlns="http://www.w3.org/2000/svg" xmlns:xlink="http://www.w3.org/1999/xlink" version="1.1" x="0" y="0" viewBox="13.414000000000001 1.826 72.206 96.176" enable-background="new 0 0 100 100" xml:space="preserve" height="231.46684295374953" width="173.77822806436575" class="icon-icon-0" data-fill-palette-color="accent" id="icon-0"><path d="M85.62 39.229c0 20.657-16.164 37.403-36.103 37.403-19.939 0-36.103-16.746-36.103-37.403S29.579 1.826 49.518 1.826C69.456 1.826 85.62 18.572 85.62 39.229zM22.791 35.563c0 10.812 6.473 20.053 15.62 23.808-4.814-4.672-7.827-11.314-7.827-18.688 0-14.142 11.066-25.605 24.715-25.605 3.214 0 6.279 0.642 9.096 1.797-4.42-4.289-10.355-6.919-16.889-6.919C33.855 9.957 22.791 21.421 22.791 35.563z" fill="#ffffff" data-fill-palette-color="accent"></path><g fill="#ffffff" data-fill-palette-color="accent"><path d="M49.192 87.631c-14.435 0-23.941-7.275-24.339-7.585-1.824-1.42-2.151-4.051-0.73-5.875 1.418-1.819 4.04-2.15 5.862-0.74 0.15 0.112 7.816 5.828 19.208 5.828 11.67 0 19.309-4.491 21.372-5.868 1.926-1.284 4.522-0.765 5.806 1.158 1.283 1.924 0.765 4.523-1.158 5.806C71.932 82.543 62.833 87.631 49.192 87.631L49.192 87.631z" fill="#ffffff" data-fill-palette-color="accent"></path></g><g fill="#ffffff" data-fill-palette-color="accent"><path d="M49.006 98.002c-16.932 0-28.056-8.368-28.521-8.725-1.835-1.406-2.184-4.034-0.778-5.869 1.403-1.832 4.023-2.184 5.858-0.787 0.182 0.137 9.529 7.008 23.441 7.008 14.162 0 23.469-5.377 25.983-7.024 1.936-1.268 4.53-0.727 5.795 1.207 1.268 1.934 0.728 4.528-1.206 5.795C75.726 92.131 65.036 98.002 49.006 98.002L49.006 98.002z" fill="#ffffff" data-fill-palette-color="accent"></path></g></svg></g></svg></g></svg></g><defs></defs></svg><rect width="395.52" height="144.8549253540549" fill="none" stroke="none" visibility="hidden"></rect></g></svg></g></svg>