<svg xmlns="http://www.w3.org/2000/svg" version="1.1" xmlns:xlink="http://www.w3.org/1999/xlink" xmlns:svgjs="http://svgjs.dev/svgjs" width="2000" height="888" viewBox="0 0 2000 888"><g transform="matrix(1,0,0,1,-1.2121212121212466,-0.2602120468066573)"><svg viewBox="0 0 396 176" data-background-color="#ffffff" preserveAspectRatio="xMidYMid meet" height="888" width="2000" xmlns="http://www.w3.org/2000/svg" xmlns:xlink="http://www.w3.org/1999/xlink"><g id="tight-bounds" transform="matrix(1,0,0,1,0.2400000000000091,0.05157355882654713)"><svg viewBox="0 0 395.52 175.8968528823469" height="175.8968528823469" width="395.52"><g><svg viewBox="0 0 732.0836837020208 325.5744741345594" height="175.8968528823469" width="395.52"><g><rect width="14.775208922826181" height="293.50556153527117" x="283.1099173895973" y="16.03445629964412" fill="#bf9d50" opacity="1" stroke-width="0" stroke="transparent" fill-opacity="1" class="rect-qz-0" data-fill-palette-color="primary" rx="1%" id="qz-0" data-palette-color="#bf9d50"></rect></g><g transform="matrix(1,0,0,1,336.56368370202085,40.49325309425005)"><svg viewBox="0 0 395.52 244.5879679460593" height="244.5879679460593" width="395.52"><g id="textblocktransform"><svg viewBox="0 0 395.52 244.5879679460593" height="244.5879679460593" width="395.52" id="textblock"><g><svg viewBox="0 0 395.52 163.83943047830923" height="163.83943047830923" width="395.52"><g transform="matrix(1,0,0,1,0,0)"><svg width="395.52" viewBox="1.25 -36.75 112.36 46.55" height="163.83943047830923" data-palette-color="#bf9d50"><path d="M6.3 9.4L1.25 9.4 1.25-27.35 6.3-27.35 6.3-25.55Q7.25-26.45 8.3-27.1 9.35-27.75 10.3-27.75L10.3-27.75Q11.6-27.75 12.46-26.96 13.33-26.18 13.76-24.95 14.2-23.73 14.2-22.4L14.2-22.4 14.2-4.95Q14.2-3.63 13.75-2.39 13.3-1.15 12.43-0.38 11.55 0.4 10.3 0.4L10.3 0.4Q9.25 0.4 8.25-0.26 7.25-0.93 6.3-1.8L6.3-1.8 6.3 9.4ZM8.05-4.35L8.05-4.35Q8.63-4.35 8.89-4.7 9.15-5.05 9.15-5.75L9.15-5.75 9.15-21.1Q9.15-22.05 8.89-22.53 8.63-23 8.05-23L8.05-23Q7.5-23 6.9-22.54 6.3-22.08 6.3-21.35L6.3-21.35 6.3-6Q6.3-5.4 6.9-4.88 7.5-4.35 8.05-4.35ZM23 0.4L23 0.4Q21.22 0.4 19.9-0.2 18.57-0.8 17.7-1.91 16.82-3.03 16.39-4.55 15.95-6.08 15.95-7.95L15.95-7.95 20.65-7.95Q20.65-6.28 21.19-5.04 21.72-3.8 23-3.8L23-3.8Q24.1-3.8 24.42-4.73 24.75-5.65 24.75-6.85L24.75-6.85Q24.75-8.25 23.66-9.71 22.57-11.18 21.4-12.33L21.4-12.33Q19.37-14.33 18.04-16.28 16.7-18.23 16.7-20.85L16.7-20.85Q16.7-23.95 18.32-25.85 19.95-27.75 22.95-27.75L22.95-27.75Q24.75-27.75 25.99-27.28 27.22-26.8 27.97-25.85 28.72-24.9 29.06-23.53 29.4-22.15 29.4-20.35L29.4-20.35 24.7-20.35Q24.7-21.65 24.42-22.6 24.15-23.55 23.05-23.55L23.05-23.55Q22.15-23.55 21.77-22.79 21.4-22.03 21.4-20.85L21.4-20.85Q21.4-19.48 22.06-18.41 22.72-17.35 24.27-15.83L24.27-15.83Q26.22-13.93 27.84-11.78 29.45-9.63 29.45-7.1L29.45-7.1Q29.45-5.45 29.01-4.08 28.57-2.7 27.74-1.7 26.9-0.7 25.71-0.15 24.52 0.4 23 0.4ZM32.42 9.8L32.42 9.8Q32.09 9.8 31.64 9.78 31.2 9.75 30.77 9.68L30.77 9.68 30.77 5.2Q30.84 5.23 31.17 5.26 31.5 5.3 31.59 5.3L31.59 5.3Q32.99 5.3 33.86 4.55 34.72 3.8 35.07 2.55L35.07 2.55Q35.2 2.18 35.21 1.68 35.22 1.18 35.22 0.8L35.22 0.8 30.57-27.35 35.52-27.35 37.52-10.3 37.62-8.4 37.82-8.4 37.92-10.3 39.92-27.35 44.87-27.35 40.02 2.05Q39.75 4.25 38.78 6.01 37.82 7.78 36.22 8.79 34.62 9.8 32.42 9.8ZM52.69 0.38L52.69 0.38Q49.37 0.38 47.81-1.7 46.24-3.78 46.24-7.48L46.24-7.48 46.24-19.9Q46.24-23.63 47.81-25.69 49.37-27.75 52.69-27.75L52.69-27.75Q56.02-27.75 57.61-25.68 59.19-23.6 59.19-19.9L59.19-19.9 59.19-17.75 54.14-17.75 54.14-20.55Q54.14-21.7 53.84-22.48 53.54-23.25 52.69-23.25L52.69-23.25Q51.84-23.25 51.57-22.46 51.29-21.68 51.29-20.55L51.29-20.55 51.29-6.83Q51.29-5.7 51.57-4.91 51.84-4.13 52.69-4.13L52.69-4.13Q53.54-4.13 53.84-4.9 54.14-5.68 54.14-6.83L54.14-6.83 54.14-9.63 59.19-9.63 59.19-7.48Q59.19-3.78 57.61-1.7 56.02 0.38 52.69 0.38ZM66.49 0L61.44 0 61.44-36.75 66.49-36.75 66.49-25.48Q67.14-26.15 68.42-26.95 69.69-27.75 70.84-27.75L70.84-27.75Q72.09-27.75 72.94-27.03 73.79-26.3 74.22-25.09 74.64-23.88 74.64-22.4L74.64-22.4 74.64 0 69.59 0 69.59-21.35Q69.59-22.1 69.25-22.56 68.92-23.03 68.47-23.03L68.47-23.03Q67.94-23.03 67.22-22.44 66.49-21.85 66.49-21.13L66.49-21.13 66.49 0ZM82.44 0L77.39 0 77.39-27.35 82.44-27.35 82.44 0ZM82.44-31.7L77.39-31.7 77.39-36.75 82.44-36.75 82.44-31.7ZM91.39 0.38L91.39 0.38Q88.06 0.38 86.5-1.7 84.94-3.78 84.94-7.48L84.94-7.48 84.94-19.9Q84.94-23.63 86.5-25.69 88.06-27.75 91.39-27.75L91.39-27.75Q94.71-27.75 96.3-25.68 97.89-23.6 97.89-19.9L97.89-19.9 97.89-17.75 92.84-17.75 92.84-20.55Q92.84-21.7 92.54-22.48 92.24-23.25 91.39-23.25L91.39-23.25Q90.54-23.25 90.26-22.46 89.99-21.68 89.99-20.55L89.99-20.55 89.99-6.83Q89.99-5.7 90.26-4.91 90.54-4.13 91.39-4.13L91.39-4.13Q92.24-4.13 92.54-4.9 92.84-5.68 92.84-6.83L92.84-6.83 92.84-9.63 97.89-9.63 97.89-7.48Q97.89-3.78 96.3-1.7 94.71 0.38 91.39 0.38ZM104.06 0.4L104.06 0.4Q102.31 0.4 101.03-1.38 99.76-3.15 99.76-6.8L99.76-6.8Q99.76-10.33 101.27-12.48 102.78-14.63 105.81-16.2L105.81-16.2Q106.76-16.7 107.41-17.1 108.06-17.5 108.21-17.85L108.21-17.85 108.21-20.85Q108.21-21.88 107.97-22.61 107.73-23.35 106.81-23.35L106.81-23.35Q105.96-23.35 105.66-22.56 105.36-21.78 105.36-20.6L105.36-20.6 105.36-19.3 100.31-19.3 100.31-20.45Q100.31-22.7 101.2-24.34 102.08-25.98 103.62-26.86 105.16-27.75 107.11-27.75L107.11-27.75Q108.98-27.75 110.36-26.89 111.73-26.03 112.5-24.51 113.26-23 113.26-21.05L113.26-21.05 113.26-4.75Q113.26-2.93 113.36-1.91 113.46-0.9 113.61 0L113.61 0 108.66 0Q108.33-0.4 108.27-1.18 108.21-1.95 108.21-2.2L108.21-2.2 107.86-2.2Q107.23-1.05 106.27-0.33 105.31 0.4 104.06 0.4ZM106.11-4.55L106.11-4.55Q106.98-4.55 107.6-5.15 108.21-5.75 108.21-6.45L108.21-6.45 108.21-12.95Q106.38-12.18 105.55-10.61 104.71-9.05 104.71-7.1L104.71-7.1Q104.71-6.25 105.03-5.4 105.36-4.55 106.11-4.55Z" opacity="1" transform="matrix(1,0,0,1,0,0)" fill="#bf9d50" class="wordmark-text-0" data-fill-palette-color="primary" id="text-0"></path></svg></g></svg></g><g transform="matrix(1,0,0,1,0,202.51798786790656)"><svg viewBox="0 0 232.209792 42.069980078152746" height="42.069980078152746" width="232.209792"><g transform="matrix(1,0,0,1,0,0)"><svg width="232.209792" viewBox="1.25 -40 225.18 40.8" height="42.069980078152746" data-palette-color="#ffffff"><path d="M32.2-11.8L32.2-11.8Q33.1-11.8 33.1-9.5L33.1-9.5Q33.1-8.25 32.05-6.48 31-4.7 29.33-3.23 27.65-1.75 25.6-0.8 23.55 0.15 21.6 0.15L21.6 0.15Q18.85 0.15 18-4.35L18-4.35Q15 0.4 9.1 0.4L9.1 0.4Q5.5 0.4 3.35-1.8 1.2-4 1.25-7.15L1.25-7.15Q1.25-15.65 6.9-20.55L6.9-20.55Q10.8-23.9 15-23.9L15-23.9Q16.9-23.9 18-23.6L18-23.6 19.15-23.3Q21.2-32.95 23.9-36.2L23.9-36.2Q24.8-37.3 25.7-37.3L25.7-37.3Q27.15-37.3 28.4-35.3L28.4-35.3Q29.5-33.65 29.5-32.45 29.5-31.25 29.15-30.1 28.8-28.95 28.28-27.98 27.75-27 27.1-26.08 26.45-25.15 25.8-24.2L25.8-24.2Q24.35-18.8 23.65-12.1L23.65-12.1Q23.45-10.2 23.45-9.05L23.45-9.05Q23.45-5.6 24.6-5.6L24.6-5.6Q25.9-5.6 30.9-10.8L30.9-10.8Q31.8-11.8 32.2-11.8ZM8.6-8.8L8.6-8.8Q8.6-4.95 11.45-4.95L11.45-4.95Q13.15-4.95 14.88-6.25 16.6-7.55 17.55-10.6L17.55-10.6Q17.65-15.1 18.6-20.5L18.6-20.5Q14.6-19.7 11.6-16.6 8.6-13.5 8.6-8.8ZM36.6 0.15L36.6 0.15Q31.6 0.15 31.6-9.2L31.6-9.2Q31.6-14.3 32.85-18.45L32.85-18.45Q34.8-24.85 37.25-24.85L37.25-24.85Q38.7-24.85 39.55-22.9L39.55-22.9Q40.25-21.4 40.2-19.95L40.2-19.95Q40.2-17.95 39-12.9L39-12.9Q37.85-8.5 37.85-7.45 37.85-6.4 38.37-6 38.9-5.6 39.62-5.6 40.35-5.6 41.45-6.55 42.55-7.5 43.65-8.63 44.75-9.75 45.67-10.7 46.6-11.65 46.95-11.65L46.95-11.65Q47.65-11.65 47.65-9.95L47.65-9.95Q47.65-6.45 44.12-3.13 40.6 0.2 36.6 0.15ZM38.65-28.9L38.65-28.9Q37.3-30.9 37.3-33.2 37.3-35.5 38.02-37.02 38.75-38.55 39.4-39.28 40.05-40 40.9-40L40.9-40Q42.3-40 43.45-37.93 44.6-35.85 44.6-34.45L44.6-34.45Q44.6-31.85 42.77-30.38 40.95-28.9 38.65-28.9ZM53.05-22L53.05-22Q53.05-18.65 51.85-14.4L51.85-14.4Q51.95-12.8 51.95-11.3 51.95-9.8 52.15-8.7L52.15-8.7Q52.9-6.7 54.05-6.25L54.05-6.25Q55.05-6.25 56.25-7.98 57.45-9.7 58.7-12.1L58.7-12.1Q58.1-14.4 58.1-16.45L58.1-16.45Q58.1-20.05 59.2-21.7L59.2-21.7Q60.55-23.8 63.3-23.8 66.05-23.8 66.95-21.7L66.95-21.7Q67.3-20.9 67.3-19.9L67.3-19.9Q67.3-18.1 66.4-16.23 65.5-14.35 63.5-11.3L63.5-11.3Q64.4-8.65 66.2-8.65L66.2-8.65Q68.4-8.7 70-10.2L70-10.2Q70.59-10.8 71.02-11.25 71.45-11.7 71.9-11.7L71.9-11.7Q72.59-11.7 72.59-10.05L72.59-10.05Q72.59-6.95 70.82-5.53 69.05-4.1 66.34-4.1L66.34-4.1Q62.8-4.1 60.7-7.2L60.7-7.2Q54.85 0.4 50.9 0.4L50.9 0.4Q49.35 0.4 47.85-4 46.35-8.4 45.55-15.9L45.55-15.9Q44.95-20.65 46.25-22.7L46.25-22.7Q47.35-24.3 50.55-24.3L50.55-24.3Q51.75-24.3 52.4-23.58 53.05-22.85 53.05-22ZM76.34 0.15L76.34 0.15Q71.34 0.15 71.34-9.2L71.34-9.2Q71.34-14.3 72.59-18.45L72.59-18.45Q74.54-24.85 76.99-24.85L76.99-24.85Q78.44-24.85 79.29-22.9L79.29-22.9Q79.99-21.4 79.94-19.95L79.94-19.95Q79.94-17.95 78.74-12.9L78.74-12.9Q77.59-8.5 77.59-7.45 77.59-6.4 78.12-6 78.64-5.6 79.37-5.6 80.09-5.6 81.19-6.55 82.29-7.5 83.39-8.63 84.49-9.75 85.42-10.7 86.34-11.65 86.69-11.65L86.69-11.65Q87.39-11.65 87.39-9.95L87.39-9.95Q87.39-6.45 83.87-3.13 80.34 0.2 76.34 0.15ZM78.39-28.9L78.39-28.9Q77.04-30.9 77.04-33.2 77.04-35.5 77.77-37.02 78.49-38.55 79.14-39.28 79.79-40 80.64-40L80.64-40Q82.04-40 83.19-37.93 84.34-35.85 84.34-34.45L84.34-34.45Q84.34-31.85 82.52-30.38 80.69-28.9 78.39-28.9ZM91.54-24.95L91.54-24.95Q93.34-24.95 94.94-21.5L94.94-21.5Q97.29-23.95 100.77-23.95 104.24-23.95 105.99-22.43 107.74-20.9 107.74-18.13 107.74-15.35 107.02-12.5 106.29-9.65 105.97-8.43 105.64-7.2 105.64-6.4 105.64-5.6 106.19-5.6L106.19-5.6Q106.94-5.6 108.04-6.55 109.14-7.5 110.24-8.63 111.34-9.75 112.27-10.7 113.19-11.65 113.54-11.65L113.54-11.65Q114.24-11.65 114.24-9.95L114.24-9.95Q114.24-6.45 110.79-3.2L110.79-3.2Q104.99 0.2 103.39 0.2L103.39 0.2Q103.24 0.2 103.19 0.15L103.19 0.15Q99.19 0.15 99.19-6.25L99.19-6.25Q99.19-9 99.72-11.3 100.24-13.6 100.49-14.65 100.74-15.7 100.74-16.8L100.74-16.8Q100.74-18.6 98.67-18.6 96.59-18.6 94.72-15.53 92.84-12.45 92.19-9.15L92.19-9.15 92.19-8.8Q92.19-7.1 92.72-5.3 93.24-3.5 93.24-2.8L93.24-2.8Q93.24-1.1 88.99 0.55L88.99 0.55Q88.34 0.8 87.84 0.8L87.84 0.8Q86.59 0.8 86.11-0.5 85.64-1.8 85.64-4.55L85.64-4.55Q85.64-11.65 86.19-14.8L86.19-14.8Q86.94-19.5 89.59-23.55L89.59-23.55Q90.49-24.95 91.54-24.95ZM142.44-11.8L142.44-11.8Q143.34-11.8 143.34-9.5L143.34-9.5Q143.34-8.25 142.29-6.48 141.24-4.7 139.56-3.23 137.89-1.75 135.84-0.8 133.79 0.15 131.84 0.15L131.84 0.15Q129.19 0.15 128.29-4.5L128.29-4.5Q126.99-2.35 124.89-0.98 122.79 0.4 119.26 0.4 115.74 0.4 113.59-1.8 111.44-4 111.49-7.15L111.49-7.15Q111.49-15.65 117.14-20.55L117.14-20.55Q119.54-22.6 121.61-23.25 123.69-23.9 125.99-23.9 128.29-23.9 129.74-23.1L129.74-23.1Q130.44-24.55 131.34-24.55L131.34-24.55Q133.09-24.55 134.66-23.03 136.24-21.5 136.24-20.15L136.24-20.15Q135.54-18.5 134.19-16.2L134.19-16.2Q133.79-13.9 133.79-9.75 133.79-5.6 134.84-5.6L134.84-5.6Q136.14-5.6 141.14-10.8L141.14-10.8Q142.04-11.8 142.44-11.8ZM118.84-8.8L118.84-8.8Q118.84-4.95 121.69-4.95L121.69-4.95Q124.74-5 126.74-8.2L126.74-8.2Q127.44-9.3 127.89-10.9L127.89-10.9Q127.89-16.5 128.89-20.5L128.89-20.5Q124.84-19.7 121.84-16.6 118.84-13.5 118.84-8.8ZM147.49-24.95L147.49-24.95Q149.28-24.95 150.89-21.5L150.89-21.5Q153.24-23.95 156.71-23.95 160.19-23.95 161.94-22.43 163.69-20.9 163.69-18.13 163.69-15.35 162.96-12.5 162.24-9.65 161.91-8.43 161.59-7.2 161.59-6.4 161.59-5.6 162.14-5.6L162.14-5.6Q162.89-5.6 163.99-6.55 165.09-7.5 166.19-8.63 167.29-9.75 168.21-10.7 169.14-11.65 169.49-11.65L169.49-11.65Q170.19-11.65 170.19-9.95L170.19-9.95Q170.19-6.45 166.74-3.2L166.74-3.2Q160.94 0.2 159.34 0.2L159.34 0.2Q159.19 0.2 159.14 0.15L159.14 0.15Q155.14 0.15 155.14-6.25L155.14-6.25Q155.14-9 155.66-11.3 156.19-13.6 156.44-14.65 156.69-15.7 156.69-16.8L156.69-16.8Q156.69-18.6 154.61-18.6 152.53-18.6 150.66-15.53 148.78-12.45 148.14-9.15L148.14-9.15 148.14-8.8Q148.14-7.1 148.66-5.3 149.19-3.5 149.19-2.8L149.19-2.8Q149.19-1.1 144.94 0.55L144.94 0.55Q144.28 0.8 143.78 0.8L143.78 0.8Q142.53 0.8 142.06-0.5 141.59-1.8 141.59-4.55L141.59-4.55Q141.59-11.65 142.14-14.8L142.14-14.8Q142.89-19.5 145.53-23.55L145.53-23.55Q146.44-24.95 147.49-24.95ZM198.38-11.8L198.38-11.8Q199.28-11.8 199.28-9.5L199.28-9.5Q199.28-8.25 198.23-6.48 197.18-4.7 195.51-3.23 193.83-1.75 191.78-0.8 189.73 0.15 187.78 0.15L187.78 0.15Q185.03 0.15 184.18-4.35L184.18-4.35Q181.18 0.4 175.28 0.4L175.28 0.4Q171.68 0.4 169.53-1.8 167.38-4 167.43-7.15L167.43-7.15Q167.43-15.65 173.08-20.55L173.08-20.55Q176.98-23.9 181.18-23.9L181.18-23.9Q183.08-23.9 184.18-23.6L184.18-23.6 185.33-23.3Q187.38-32.95 190.08-36.2L190.08-36.2Q190.98-37.3 191.88-37.3L191.88-37.3Q193.33-37.3 194.58-35.3L194.58-35.3Q195.68-33.65 195.68-32.45 195.68-31.25 195.33-30.1 194.98-28.95 194.46-27.98 193.93-27 193.28-26.08 192.63-25.15 191.98-24.2L191.98-24.2Q190.53-18.8 189.83-12.1L189.83-12.1Q189.63-10.2 189.63-9.05L189.63-9.05Q189.63-5.6 190.78-5.6L190.78-5.6Q192.08-5.6 197.08-10.8L197.08-10.8Q197.98-11.8 198.38-11.8ZM174.78-8.8L174.78-8.8Q174.78-4.95 177.63-4.95L177.63-4.95Q179.33-4.95 181.06-6.25 182.78-7.55 183.73-10.6L183.73-10.6Q183.83-15.1 184.78-20.5L184.78-20.5Q180.78-19.7 177.78-16.6 174.78-13.5 174.78-8.8ZM216.98-4.25L216.98-4.25Q213.03 0.4 207.5 0.4 201.98 0.4 199.23-2.43 196.48-5.25 196.53-9.45L196.53-9.45Q196.48-15.4 200.28-19.7 204.08-24 210.23-24L210.23-24Q213.03-24 214.73-23.3L214.73-23.3Q217.68-22.1 217.68-21.05L217.68-21.05Q217.68-20.25 213.56-20.23 209.43-20.2 206.66-17.38 203.88-14.55 203.88-10.25L203.88-10.25Q203.88-8 205.21-6.48 206.53-4.95 208.96-4.95 211.38-4.95 212.98-5.95L212.98-5.95Q209.43-8.35 209.43-12.9L209.43-12.9Q209.38-15.3 211.16-17.28 212.93-19.25 215.71-19.28 218.48-19.3 219.68-17.75 220.88-16.2 220.88-13.78 220.88-11.35 219.73-8.65L219.73-8.65 220.03-8.65Q222.23-8.7 223.83-10.2L223.83-10.2Q224.43-10.8 224.86-11.25 225.28-11.7 225.73-11.7L225.73-11.7Q226.43-11.7 226.43-10.05L226.43-10.05Q226.43-7 224.63-5.48 222.83-3.95 220.66-3.95 218.48-3.95 216.98-4.25ZM216.53-10.05L216.53-10.05Q217.38-11.85 217.38-13.55 217.38-15.25 216.28-15.25L216.28-15.25Q215.83-15.25 215.53-14.6 215.23-13.95 215.23-13.35L215.23-13.35Q215.23-11.35 216.53-10.05Z" opacity="1" transform="matrix(1,0,0,1,0,0)" fill="#ffffff" class="slogan-text-1" data-fill-palette-color="secondary" id="text-1"></path></svg></g></svg></g></svg></g></svg></g><g><svg viewBox="0 0 244.43135999999996 325.5744741345594" height="325.5744741345594" width="244.43135999999996"><g><svg xmlns="http://www.w3.org/2000/svg" xmlns:xlink="http://www.w3.org/1999/xlink" version="1.1" x="0" y="0" viewBox="13.414000000000001 1.826 72.206 96.176" enable-background="new 0 0 100 100" xml:space="preserve" height="325.5744741345594" width="244.43135999999996" class="icon-icon-0" data-fill-palette-color="accent" id="icon-0"><path d="M85.62 39.229c0 20.657-16.164 37.403-36.103 37.403-19.939 0-36.103-16.746-36.103-37.403S29.579 1.826 49.518 1.826C69.456 1.826 85.62 18.572 85.62 39.229zM22.791 35.563c0 10.812 6.473 20.053 15.62 23.808-4.814-4.672-7.827-11.314-7.827-18.688 0-14.142 11.066-25.605 24.715-25.605 3.214 0 6.279 0.642 9.096 1.797-4.42-4.289-10.355-6.919-16.889-6.919C33.855 9.957 22.791 21.421 22.791 35.563z" fill="#ffffff" data-fill-palette-color="accent"></path><g fill="#ffffff" data-fill-palette-color="accent"><path d="M49.192 87.631c-14.435 0-23.941-7.275-24.339-7.585-1.824-1.42-2.151-4.051-0.73-5.875 1.418-1.819 4.04-2.15 5.862-0.74 0.15 0.112 7.816 5.828 19.208 5.828 11.67 0 19.309-4.491 21.372-5.868 1.926-1.284 4.522-0.765 5.806 1.158 1.283 1.924 0.765 4.523-1.158 5.806C71.932 82.543 62.833 87.631 49.192 87.631L49.192 87.631z" fill="#ffffff" data-fill-palette-color="accent"></path></g><g fill="#ffffff" data-fill-palette-color="accent"><path d="M49.006 98.002c-16.932 0-28.056-8.368-28.521-8.725-1.835-1.406-2.184-4.034-0.778-5.869 1.403-1.832 4.023-2.184 5.858-0.787 0.182 0.137 9.529 7.008 23.441 7.008 14.162 0 23.469-5.377 25.983-7.024 1.936-1.268 4.53-0.727 5.795 1.207 1.268 1.934 0.728 4.528-1.206 5.795C75.726 92.131 65.036 98.002 49.006 98.002L49.006 98.002z" fill="#ffffff" data-fill-palette-color="accent"></path></g></svg></g></svg></g></svg></g><defs></defs></svg><rect width="395.52" height="175.8968528823469" fill="none" stroke="none" visibility="hidden"></rect></g></svg></g></svg>